<svg xmlns="http://www.w3.org/2000/svg" viewBox="0 0 99.1 96.8"><g data-name="Layer 2"><g data-name="&lt;Layer&gt;"><path d="M97.62 64.1a12.14 12.14 0 0 1-1-.69c-2.74 4.79-7.26 7-12.64 8.11-3.56.77-7.43 1.28-10.7-.33a11.93 11.93 0 0 1-5.57-6.71c-1.41-3.81-1.32-7.89-1.86-11.86-.36-2.66-1.39-9-5.31-8.4A7 7 0 0 0 57 46.33a46.25 46.25 0 0 0-6.58 7.79c-1 1.49-4.95 6.32-4.69 8.1-2.22-15.33 9.5-25.43 14.08-38.82 1.71-5 2.67-10.77 1.49-16C60.75 5.21 58.83 0 56 0c-3.59 0-5 7.19-5.54 9.76q-3.54 16.83-6.58 33.76c-1.11 6.13-2.39 12.71-3.31 19.06-.17 1.19-2.46 17.76 1.35 15.75A4.64 4.64 0 0 0 43.36 76a84.7 84.7 0 0 1 15.22-24.8c.6-.66 1.26-1.32 2-1.3 3.22.07 2.57 9.25 2.86 11.35 1.25 9 7.65 17.78 17.58 16.6 6.63-.78 13.11-5.38 18.1-12.79zM50.68 22.77c0-.14.06-.28.08-.43.24-1.34 4.13-16.87 5-16.26a6 6 0 0 1 2.19 3c.78 2.21.67 4.21.73 6.55.15 6-5.37 18.58-11 23.65-.55-4.08 2.11-12.36 3-16.51zM8.28 94.44A2.08 2.08 0 0 1 6 96.8a2.06 2.06 0 0 1-2.32-2.36v-6.86A2.07 2.07 0 0 1 6 85.22a2.08 2.08 0 0 1 2.33 2.36v1.51H6.66v-1.51c0-.51-.24-.76-.71-.76-.46 0-.69.25-.69.76v6.86c0 .51.23.76.7.76s.71-.25.71-.76v-1.51h1.61zm16.96 0a2.08 2.08 0 0 1-2.33 2.36 2.06 2.06 0 0 1-2.32-2.36v-6.86a2.07 2.07 0 0 1 2.32-2.36 2.08 2.08 0 0 1 2.33 2.36zm-1.62-6.86c0-.51-.23-.76-.7-.76s-.7.25-.7.76v6.86c0 .51.23.76.7.76s.71-.25.71-.76zm10.73 9.04h-2.22L31 89.37l-.52-4h1.63l1.14 8.65 1.14-8.65H36l-.53 4zm6.99-11.22h4.2V87H43v3.22h2.22v1.6H43V95h2.58v1.6h-4.2zm9.76 0h2.35c1.44 0 2.16.79 2.16 2.36v1.69a1.87 1.87 0 0 1-1.27 2l1.81 5.22h-1.77l-1.46-4.94h-.2v4.91H51.1zm1.62 1.6v3.22h.37a1.52 1.52 0 0 0 .46 0 .68.68 0 0 0 .44-.71v-1.75c0-.51-.23-.77-.7-.77zm15.97-1.6h1.62v4.81h1.41V85.4h1.62v11.22h-1.62v-4.81h-1.41v4.81h-1.62zm10.53 0h1.61v11.22h-1.61zm7.49 11.22V85.4h.89V95H89v1.6zm-73.43 0V85.4h.89V95h1.42v1.6zm80.24 0V85.4h.89V95h1.42v1.6z"/><path d="M20.38 37a19.14 19.14 0 0 1 7.72 1.57 21.13 21.13 0 0 1 6.38 4.25l-5.62 5.63a11.56 11.56 0 0 0-8.43-3.52A11.43 11.43 0 0 0 12 48.42a11.9 11.9 0 0 0 0 16.86 11.48 11.48 0 0 0 8.44 3.5 11.48 11.48 0 0 0 8.45-3.52l5.63 5.62a20.8 20.8 0 0 1-6.38 4.28 19.18 19.18 0 0 1-7.73 1.57 19.18 19.18 0 0 1-14.07-5.85 19.87 19.87 0 0 1 0-28.14 19.12 19.12 0 0 1 14.06-5.86z" fill="#fff" stroke="#000" stroke-miterlimit="10"/></g></g></svg>