<svg xmlns="http://www.w3.org/2000/svg" viewBox="0 0 135.41 16.19"><title>@shop</title><g id="Layer_2" data-name="Layer 2"><g id="_Layer_" data-name="&lt;Layer&gt;"><path d="M2.89,2H3c.86,0,1.6.6,2.25,1.81a10.16,10.16,0,0,1,.86,3.41,4.31,4.31,0,0,1,0,.7v.13c0,.61-.2,1-.6,1h0c-.19,0-.46-.6-.82-1.81h0C4.62,9.08,4.19,10,3.33,10s-1.57-1-1.73-3.11C1.6,5.37,2,4.42,2.76,4a2.07,2.07,0,0,1,.61-.13,1.32,1.32,0,0,1,.73.3c.18,0,.33.46.48,1.38a27.29,27.29,0,0,0,1,3h0A2.9,2.9,0,0,0,5.7,8V8a10.62,10.62,0,0,0-1-4.24C4.1,2.88,3.53,2.46,3,2.46H2.85C2.27,2.46,1.65,3,1,4A4.87,4.87,0,0,0,.43,6.13a44.56,44.56,0,0,0,.56,5c.67,1.73,1.62,2.59,2.85,2.59.9-.22,1.34-.46,1.34-.74a4.44,4.44,0,0,0,.61-1.55l.08,0H6s.1.05.17.17v.13a3.43,3.43,0,0,1-1,2,2.86,2.86,0,0,1-1.38.47c-1.47,0-2.57-1-3.28-3.15A48.56,48.56,0,0,1,0,6.05a4.46,4.46,0,0,1,1.64-3.5A2,2,0,0,1,2.89,2ZM2,6.74A3.1,3.1,0,0,0,3,9.46a.87.87,0,0,1,.26.08c.61,0,.91-.69.91-2.07V7.21Q4,4.45,3.8,4.45l-.43-.13c-.67,0-1.1.57-1.3,1.73A6.81,6.81,0,0,0,2,6.74Z"/><path d="M14.76,1.38l.13.16v.08s-.07.1-.22.2h-.43a1.56,1.56,0,0,0-1.55.86,6,6,0,0,0-.35,2.09A7.38,7.38,0,0,0,13,7.08a15.21,15.21,0,0,0,2.33,2.34,5.38,5.38,0,0,1,1.08,3.07,5.53,5.53,0,0,1-.52,2.34,2.13,2.13,0,0,1-1.3.93,1.34,1.34,0,0,1-.6.21.3.3,0,0,1-.3-.17v-.11c0-.08.16-.14.47-.17,1-.36,1.43-.73,1.43-1.13a4.51,4.51,0,0,0,.39-2,4.68,4.68,0,0,0-1.47-3.19,8,8,0,0,1-1.73-1.7A5.66,5.66,0,0,1,12,5.26a4.29,4.29,0,0,0,0-.56,5.53,5.53,0,0,1,.52-2.46A2.66,2.66,0,0,1,14.76,1.38Z"/><path d="M24.62,0h.09c.11.06.17.13.17.22q0,2-.09,3.15l.09,4.49a.46.46,0,0,1,.09.22q0,.12-.09.12.09,2,.13,7a5.66,5.66,0,0,0,0,.87l-.13.08h-.13l-.18-.13a4.53,4.53,0,0,1,0-.73q0-5.91-.13-7.08a15.32,15.32,0,0,0-2.29.13,14.17,14.17,0,0,1,.09,1.6c0,1.14,0,2.15-.05,3,0,.49.05,1.44.05,2.85a.48.48,0,0,1-.26.08s-.1,0-.18-.17v-.39c0-1.17,0-2,0-2.37,0-.71,0-1.57,0-2.59V9.76c-.08-1.41-.13-2.39-.13-2.94Q21.82,2,21.81.69a1.13,1.13,0,0,1,0-.3l.17-.13H22a.4.4,0,0,1,.22.34c0,.54-.05,2.7-.13,6.48v.78l0,.09a14.37,14.37,0,0,1,2.29-.13c0-1.05-.05-1.8-.05-2.25v-2a.33.33,0,0,0,0-.17l0-.08c0-1.39.05-2.45.05-3.2Z"/><path d="M32.77,1.16Q34,1.16,34.72,7c0,.36,0,.84,0,1.42v.17a2.13,2.13,0,0,1,0,.39.63.63,0,0,1,0,.3v.05a.63.63,0,0,1,0,.3,2,2,0,0,1,0,.26q0,4.56-1.25,5.61a2,2,0,0,1-.61.17h-.3c-1-.25-1.68-1.59-1.94-4l-.13-1.77q0-6.08,1.51-8.42A1.27,1.27,0,0,1,32.77,1.16ZM31,9.75A12.82,12.82,0,0,0,31.61,14c.4.81.76,1.21,1.08,1.21h0c.58,0,1-.4,1.12-1.21a14.84,14.84,0,0,0,.48-4.79V8.37a22.06,22.06,0,0,0-.91-5.83,2.17,2.17,0,0,0-.65-.95c-.33.13-.54.29-.6.47Q31,4.63,31,9.75Z"/><path d="M41.12.81a2.75,2.75,0,0,1,2.77,1.86,5.07,5.07,0,0,1,.17,1,21.19,21.19,0,0,1-1,5.92,2.86,2.86,0,0,1-1.25,1.16c-.35,0-.52.07-.52.13v0a8.31,8.31,0,0,0,0,.95c0,.26,0,.4,0,.44.08,1.62.13,2.56.13,2.8.08,0,.13.13.13.35v.13a.77.77,0,0,1-.26.39h-.09s-.1-.06-.17-.18v-.3s0,0,0,0c0-.28-.09-.66-.13-1.12a0,0,0,0,1,0-.05l-.13-1.81c0-.29,0-.5,0-.65,0-.52,0-.85,0-1s-.18-.13-.18-.22.09-.17.18-.17q-.09-1.14-.09-1.38L41,1.2A.08.08,0,0,1,41,1.11V1S41,.88,41.12.81Zm.35.43-.22,7.82c0,.6,0,1,0,1.25l.09,0a1.41,1.41,0,0,0,1-.51q.75-.48,1.21-5.32c0-.52.05-.87.05-1a2.53,2.53,0,0,0-1.3-2A5.65,5.65,0,0,0,41.47,1.24Z"/><path d="M51.64,1.33h.3c.52.09.78.28.78.56,0,0-.06.1-.17.17h-.18a.76.76,0,0,0-.6-.34q-1.08.37-1.08.69a9.67,9.67,0,0,0-.86,4.49v.73a25.49,25.49,0,0,0,.51,4.62,6.21,6.21,0,0,0,.87,2.68,2.08,2.08,0,0,0,1.16.61c.43,0,.89-.32,1.39-.95h.13s.08,0,.12.12v.09c0,.26-.31.59-.95,1a1.77,1.77,0,0,1-.73.18h0A2.54,2.54,0,0,1,51,15.28q-.77-.62-1.34-4.93a15.37,15.37,0,0,1-.22-3.06V7q.07-4.38,1.43-5.4A2.75,2.75,0,0,1,51.64,1.33Z"/><path d="M59.53.46h0s.1.06.17.18,0,.21-.09.21l.05.09q.3,4.71.3,8a24,24,0,0,1,.13,2.89v3.76h2.33s.09,0,.13.12v.13c0,.12-.24.18-.73.18h-2s-.1-.06-.17-.18v-.25c0-.21,0-.31,0-.31l0-.52V11.56c-.12-3.79-.23-6.94-.35-9.45L59.23.68A.3.3,0,0,1,59.53.46Z"/><path d="M70.14,1.16q1.22,0,1.94,5.83c0,.36,0,.84,0,1.42v.17a2.3,2.3,0,0,1,0,.39.59.59,0,0,1,0,.3v.05a.59.59,0,0,1,0,.3c0,.15,0,.24,0,.26q0,4.56-1.26,5.61a1.85,1.85,0,0,1-.6.17H70c-1-.25-1.69-1.59-2-4l-.13-1.77c0-4.05.51-6.86,1.51-8.42A1.29,1.29,0,0,1,70.14,1.16ZM68.33,9.75A12.83,12.83,0,0,0,69,14c.41.81.77,1.21,1.08,1.21h0c.58,0,1-.4,1.12-1.21a15.24,15.24,0,0,0,.47-4.79V8.37a22.42,22.42,0,0,0-.9-5.83,2.36,2.36,0,0,0-.65-.95,1,1,0,0,0-.61.47A18.93,18.93,0,0,0,68.33,9.75Z"/><path d="M81.36,1.11h.17s.09.06.13.18L80.37,12.86a19.29,19.29,0,0,1-.26,3.06L80,16h-.13c-.14,0-.3-.82-.47-2.46a77.08,77.08,0,0,1-1.13-11.4l-.13-.57s.06-.1.18-.17h.08c.26,0,.39,1.12.39,3.37.37,4.12.71,7.12,1,9h0q0-.88,1.21-11.18C81.16,1.6,81.24,1.11,81.36,1.11Z"/><path d="M89.31,1.08l.08,0s0,0,0,0q1.38.13,1.38.3v.05c0,.14-.12.21-.22.21l-1.25-.13-.86,0,0,.52c0,.47.07,2.37.22,5.7h.3a2.79,2.79,0,0,0,.56,0c.65.06,1.12.09,1.42.09l.13.17v.13c0,.08,0,.13-.17.13s-.67,0-1.25-.09c-.39,0-.72,0-1,0v.18c0,2,.1,4.37.3,7,0,0,0,0,0,0L91,15.37a.39.39,0,0,1,.26.22v0s-.05.1-.17.17c-1.09,0-1.76.06-2,.09s-.51-.19-.51-.56q-.32-4.12-.31-6.87V7.08c-.14-2.53-.21-4.24-.21-5.14C88,1.51,88,1.28,88,1.25l.17-.13h.48C88.78,1.12,89,1.11,89.31,1.08Z"/><path d="M96.8,0h.09a1.47,1.47,0,0,0,.78.26A2.81,2.81,0,0,1,99,1.5a8,8,0,0,1,.74,2.64v.43a4.89,4.89,0,0,1-1.64,4.1c1.26.3,2,1.8,2.2,4.49V14.8c0,.25,0,.61,0,1.08l-.13.09h-.13l-.17-.13c0-.58,0-1,0-1.3V13a6.55,6.55,0,0,0-1-3.33A1.94,1.94,0,0,0,97.67,9h0c0,.62,0,1.08,0,1.39V12c0,1.42.08,2.23.08,2.42v.08a.27.27,0,0,1-.26.17s-.11-.05-.21-.17l0-.3c-.06-1.22-.09-2-.09-2.42V9.23A.28.28,0,0,1,97,9.06V8.93c.06-.12.13-.17.22-.17-.14-4-.33-6.82-.56-8.6Zm.35.61q.25,3.15.47,7.81a4.09,4.09,0,0,0,1.69-3.67v-.6a6.51,6.51,0,0,0-1-2.89A2,2,0,0,0,97.28.64Z"/><path d="M109.11,0h.09c.11.06.17.13.17.22q0,2-.09,3.15l.09,4.49a.46.46,0,0,1,.09.22q0,.12-.09.12.09,2,.13,7a5.66,5.66,0,0,0,0,.87l-.13.08h-.13l-.17-.13a4.73,4.73,0,0,1,0-.73q0-5.91-.13-7.08a15.46,15.46,0,0,0-2.29.13,14.17,14.17,0,0,1,.09,1.6c0,1.14,0,2.15,0,3,0,.49,0,1.44,0,2.85a.48.48,0,0,1-.26.08s-.1,0-.17-.17v-.39c0-1.17,0-2,0-2.37,0-.71,0-1.57,0-2.59V9.76c-.09-1.41-.13-2.39-.13-2.94.08-3.21.13-5.25.13-6.13a1.17,1.17,0,0,1,0-.3l.17-.13h.09a.38.38,0,0,1,.22.34c0,.54,0,2.7-.13,6.48v.78l0,.09a14.37,14.37,0,0,1,2.29-.13c0-1.05,0-1.8,0-2.25v-2a.34.34,0,0,0-.05-.17l.05-.08c0-1.39,0-2.45,0-3.2Z"/><path d="M116.28,1.29h.09q.3,0,.3,2.28v.57c0,.56-.08,2-.26,4.36a1.33,1.33,0,0,0,0,.34c0,1.51,0,2.7,0,3.59v2.8a2.45,2.45,0,0,0,.09.43c0,.21-.09.31-.17.31h-.18c-.11,0-.17-.39-.17-1.17q0-7.48.26-10.32V3.27a11.07,11.07,0,0,0-.13-1.81C116.11,1.41,116.17,1.36,116.28,1.29Z"/><path d="M123.24.46h0s.1.06.18.18,0,.21-.09.21l0,.09q.3,4.71.3,8a24,24,0,0,1,.13,2.89v3.76h2.34s.08,0,.13.12v.13c0,.12-.25.18-.74.18h-2s-.1-.06-.17-.18v-.25c0-.21,0-.31,0-.31l0-.52V11.56c-.11-3.79-.23-6.94-.34-9.45L122.94.68A.29.29,0,0,1,123.24.46Z"/><path d="M132.34.46h0s.1.06.17.18,0,.21-.09.21l.05.09q.3,4.71.3,8a26.28,26.28,0,0,1,.13,2.89v3.76h2.33s.09,0,.13.12v.13c0,.12-.25.18-.74.18h-2c-.05,0-.1-.06-.17-.18v-.25c0-.21,0-.31,0-.31l0-.52V11.56c-.12-3.79-.23-6.94-.35-9.45L132,.68A.29.29,0,0,1,132.34.46Z"/></g></g></svg>