<svg xmlns="http://www.w3.org/2000/svg" viewBox="0 0 99.1 96.8"><defs><style>.cls-1{fill:#fff;stroke:#000;stroke-miterlimit:10;}</style></defs><title>chlogo</title><g id="Layer_2" data-name="Layer 2"><g id="_Layer_" data-name="&lt;Layer&gt;"><path d="M97.62,64.1a12.14,12.14,0,0,1-1-.69c-2.74,4.79-7.26,7-12.64,8.11-3.56.77-7.43,1.28-10.7-.33a11.93,11.93,0,0,1-5.57-6.71c-1.41-3.81-1.32-7.89-1.86-11.86-.36-2.66-1.39-9-5.31-8.4A7,7,0,0,0,57,46.33a46.25,46.25,0,0,0-6.58,7.79c-1,1.49-4.95,6.32-4.69,8.1-2.22-15.33,9.5-25.43,14.08-38.82,1.71-5,2.67-10.77,1.49-16C60.75,5.21,58.83,0,56,0c-3.59,0-5,7.19-5.54,9.76q-3.54,16.83-6.58,33.76c-1.11,6.13-2.39,12.71-3.31,19.06-.17,1.19-2.46,17.76,1.35,15.75A4.64,4.64,0,0,0,43.36,76a84.7,84.7,0,0,1,15.22-24.8c.6-.66,1.26-1.32,2-1.3,3.22.07,2.57,9.25,2.86,11.35,1.25,9,7.65,17.78,17.58,16.6,6.63-.78,13.11-5.38,18.1-12.79ZM50.68,22.77c0-.14.06-.28.08-.43C51,21,54.89,5.47,55.76,6.08a6,6,0,0,1,2.19,3c.78,2.21.67,4.21.73,6.55.15,6-5.37,18.58-11,23.65C47.13,35.2,49.79,26.92,50.68,22.77Z"/><path d="M8.28,94.44A2.08,2.08,0,0,1,6,96.8a2.06,2.06,0,0,1-2.32-2.36V87.58A2.07,2.07,0,0,1,6,85.22a2.08,2.08,0,0,1,2.33,2.36v1.51H6.66V87.58c0-.51-.24-.76-.71-.76h0c-.46,0-.69.25-.69.76v6.86c0,.51.23.76.7.76s.71-.25.71-.76V92.93H8.28Z"/><path d="M25.24,94.44a2.08,2.08,0,0,1-2.33,2.36,2.06,2.06,0,0,1-2.32-2.36V87.58a2.07,2.07,0,0,1,2.32-2.36,2.08,2.08,0,0,1,2.33,2.36Zm-1.62-6.86c0-.51-.23-.76-.7-.76h0c-.47,0-.7.25-.7.76v6.86c0,.51.23.76.7.76s.71-.25.71-.76Z"/><path d="M34.35,96.62H32.13L31,89.37l-.52-4h1.63l1.14,8.65,1.14-8.65H36l-.53,4Z"/><path d="M41.34,85.4h4.2V87H43v3.22h2.22v1.6H43V95h2.58v1.6h-4.2Z"/><path d="M51.1,85.4h2.35c1.44,0,2.16.79,2.16,2.36v1.69a1.87,1.87,0,0,1-1.27,2l1.81,5.22H54.38l-1.46-4.94-.2,0v4.91H51.1ZM52.72,87v3.22h.37a1.52,1.52,0,0,0,.46,0,.68.68,0,0,0,.44-.71V87.76c0-.51-.23-.77-.7-.77Z"/><path d="M68.69,85.4h1.62v4.81h1.41V85.4h1.62V96.62H71.72V91.81H70.31v4.81H68.69Z"/><path d="M79.22,85.4h1.61V96.62H79.22Z"/><path d="M86.71,96.62V85.4h.89V95H89v1.6Z"/><path d="M13.28,96.62V85.4h.89V95h1.42v1.6Z"/><path d="M93.52,96.62V85.4h.89V95h1.42v1.6Z"/><path class="cls-1" d="M20.38,37a19.14,19.14,0,0,1,7.72,1.57,21.13,21.13,0,0,1,6.38,4.25l-5.62,5.63a11.56,11.56,0,0,0-8.43-3.52A11.43,11.43,0,0,0,12,48.42a11.9,11.9,0,0,0,0,16.86,11.48,11.48,0,0,0,8.44,3.5,11.48,11.48,0,0,0,8.45-3.52l5.63,5.62a20.8,20.8,0,0,1-6.38,4.28,19.18,19.18,0,0,1-7.73,1.57A19.18,19.18,0,0,1,6.34,70.88a19.87,19.87,0,0,1,0-28.14A19.12,19.12,0,0,1,20.4,36.88Z"/></g></g></svg>