<svg xmlns="http://www.w3.org/2000/svg" viewBox="0 0 8.58 15.28"><title>fb</title><g id="Layer_2" data-name="Layer 2"><g id="_Layer_" data-name="&lt;Layer&gt;"><path d="M8.54,1.06c0,.74,0,1.26,0,1.57a.49.49,0,0,1-.11.31.39.39,0,0,1-.28.16.44.44,0,0,1-.45.31,2.8,2.8,0,0,0-1.57.33,1.12,1.12,0,0,0-.39,1h2a.71.71,0,0,1,.21,0,.44.44,0,0,1,.33.16.52.52,0,0,1,.14.35c0,.34,0,1.2,0,2.61A.5.5,0,0,1,8,8.33a.46.46,0,0,1-.29-.1.47.47,0,0,1-.35.26c-.58.09-1,.15-1.28.17,0,1,.1,2.8.27,5.39a.92.92,0,0,1,0,.19.51.51,0,0,1-.08.59.43.43,0,0,1-.33.15,24.07,24.07,0,0,0-3.27.3.51.51,0,0,1-.35-.1.47.47,0,0,1-.21-.31.45.45,0,0,1,.18-.45q-.13-3.66-.14-6.24a12.93,12.93,0,0,1-1.59.05.44.44,0,0,1-.34-.14.52.52,0,0,1-.13-.36A.34.34,0,0,1,.14,7.5a.16.16,0,0,1,0-.1A13,13,0,0,0,0,5.67a.41.41,0,0,1,0-.22A.49.49,0,0,1,0,5.22a.46.46,0,0,1,.15-.34.45.45,0,0,1,.34-.15,9.25,9.25,0,0,0,1-.06l.44,0,.41-.05Q1.67,1.87,3.23.73C4.18,0,5.71-.17,7.82.16a.54.54,0,0,1,.29.17.41.41,0,0,1,.12.3A.46.46,0,0,1,8.54,1.06ZM7.61,2.44c0-.26,0-.7,0-1.32C5.78.84,4.53,1,3.81,1.5s-.92,1.7-.45,3.39a.48.48,0,0,1,0,.37.53.53,0,0,1-.3.23.48.48,0,0,1-.29,0,.65.65,0,0,1-.21.06L2,5.6c-.22,0-.38,0-.47.05L1,5.69a15,15,0,0,1,.06,1.57c.34,0,.78,0,1.32-.1a.45.45,0,0,1,.33.1.44.44,0,0,1,.35.47q0,2.7.14,6.48c.63-.08,1.35-.14,2.14-.18Q5.1,9.77,5.1,8a.48.48,0,0,1,.48-.48A.48.48,0,0,1,6,7.69c.25,0,.65-.08,1.21-.18a.54.54,0,0,1,.31.06V5.74H5.17a.45.45,0,0,1-.34-.14.49.49,0,0,1-.14-.34A.52.52,0,0,1,4.8,5a2.13,2.13,0,0,1,.8-2A3.56,3.56,0,0,1,7.61,2.44Z"/></g></g></svg>