<svg xmlns="http://www.w3.org/2000/svg" viewBox="0 0 15.3 16.25"><title>google+</title><g id="Layer_2" data-name="Layer 2"><g id="_Layer_" data-name="&lt;Layer&gt;"><path d="M6.29,7.32c-.8.45-1.18.92-1.13,1.4a3.67,3.67,0,0,0,1,1.69c.07.08.22.23.42.47l.47.54c.1.13.23.29.38.5a4.25,4.25,0,0,1,.36.55,2.4,2.4,0,0,1,.35,1.24A1.86,1.86,0,0,1,7.59,15a3.37,3.37,0,0,1-1.52,1,4.11,4.11,0,0,1-1.76.19,5.85,5.85,0,0,1-1.67-.42A5.54,5.54,0,0,1,1.25,15a3.74,3.74,0,0,1-1-1.21,2,2,0,0,1-.19-1.4q.32-1.57,2.82-2.25a.6.6,0,0,1,.45.06.51.51,0,0,1,.27.35.57.57,0,0,1-.06.44.52.52,0,0,1-.35.28c-1.22.32-1.89.77-2,1.34s.18,1,.81,1.5a4.69,4.69,0,0,0,1.56.83A3.63,3.63,0,0,0,5.28,15a2.58,2.58,0,0,0,1.46-.78A.85.85,0,0,0,7,13.7,1.3,1.3,0,0,0,6.78,13c-.08-.13-.18-.27-.3-.44l-.33-.43-.44-.5c-.2-.21-.34-.38-.43-.49A4.86,4.86,0,0,1,4,8.85,2.19,2.19,0,0,1,4.07,8,3.82,3.82,0,0,1,3,7.88,2.66,2.66,0,0,1,1.1,6.17a3,3,0,0,1,.23-2.32A4.6,4.6,0,0,1,3.05,2a3.53,3.53,0,0,1,2.48-.54A4.16,4.16,0,0,1,7.46,0a.58.58,0,0,1,.41,0,.55.55,0,0,1,.26.3.51.51,0,0,1,0,.4A.51.51,0,0,1,7.81,1,2.79,2.79,0,0,0,6.45,2,2.77,2.77,0,0,1,7.89,3.56a2.76,2.76,0,0,1-.35,2.38,4,4,0,0,1-1,1.18A1,1,0,0,1,6.29,7.32ZM5.94,6.23a3.36,3.36,0,0,0,.7-.82,1.86,1.86,0,0,0,.24-1.52A2.08,2.08,0,0,0,5.4,2.69a.66.66,0,0,1-.28-.24A2.87,2.87,0,0,0,3.46,3,3.37,3.37,0,0,0,2.28,4.3a2.1,2.1,0,0,0-.19,1.54,1.75,1.75,0,0,0,1.25,1A2.42,2.42,0,0,0,5,6.79a6,6,0,0,1,.72-.49A1,1,0,0,1,5.94,6.23Zm3.37-2a14.25,14.25,0,0,0,2.23,0c0-.79,0-1.48,0-2.08a.57.57,0,0,1,.2-.4.48.48,0,0,1,.41-.14.57.57,0,0,1,.41.19.56.56,0,0,1,.15.43c0,.56,0,1.2,0,1.92.86,0,1.53-.07,2,0a.51.51,0,0,1,.4.17.61.61,0,0,1,.17.42.54.54,0,0,1-.18.41.59.59,0,0,1-.43.16c-.48,0-1.13,0-2,.06,0,1,0,1.69,0,2a.55.55,0,0,1-.18.41.53.53,0,0,1-.4.18.54.54,0,0,1-.41-.18.55.55,0,0,1-.18-.41c0-.36,0-1,0-2a17.65,17.65,0,0,1-2.37,0,.64.64,0,0,1-.4-.22.56.56,0,0,1-.12-.43.6.6,0,0,1,.22-.39A.57.57,0,0,1,9.31,4.26Z"/></g></g></svg>