<svg xmlns="http://www.w3.org/2000/svg" viewBox="0 0 13.9 12.12"><title>instagram</title><g id="Layer_2" data-name="Layer 2"><g id="_Layer_" data-name="&lt;Layer&gt;"><path d="M.49.13A11.83,11.83,0,0,1,2.12,0c.58,0,1.23,0,2,.05S5.34.11,5.61.11h7.12a.46.46,0,0,1,.21,0A.53.53,0,0,1,13.35,0a.57.57,0,0,1,.4.2.53.53,0,0,1,.15.42Q13.78,2.52,13.78,5a.64.64,0,0,1,0,.54c0,.56,0,1.45,0,2.66s0,2.14,0,2.79a.55.55,0,0,1-.22.45.56.56,0,0,1-.15.39.63.63,0,0,1-.39.17c-.91.07-1.86.1-2.86.11s-2.17,0-3.5,0l-2.86,0H3l-.65,0a6.33,6.33,0,0,1-1-.06,3.34,3.34,0,0,1-.43-.08.89.89,0,0,1-.46-.29.7.7,0,0,1-.14-.27.63.63,0,0,1,0-.16,2.07,2.07,0,0,1,0-.29c0-.18,0-.42,0-.74,0-.1,0-.24,0-.42s0-.3,0-.33V9c0-.56-.07-1.38-.08-2.46s0-1.89-.06-2.41c0-.2,0-.49,0-.86L.05,2.54c0-.65,0-1.2,0-1.65V.81A.55.55,0,0,1,.12.37.51.51,0,0,1,.49.13ZM12.65,10.86c0-.59,0-1.45,0-2.58s0-1.93,0-2.41c-1.39,0-2.27,0-2.64,0a3.17,3.17,0,0,1,0,.87,3,3,0,0,1-1.2,2,3.54,3.54,0,0,1-2.52.62A3,3,0,0,1,3.92,8.08a2.73,2.73,0,0,1-.35-2.23.25.25,0,0,1,0-.12l-2.2.08c0,1.59.05,2.63.08,3.11v.54s0,.15,0,.33,0,.32,0,.41c0,.29,0,.5,0,.65h.08a6.09,6.09,0,0,0,.83,0c.26,0,.48,0,.64,0h.86l2.76,0C7.85,11,9,11,9.9,11S11.77,10.92,12.65,10.86ZM6.82,4.27a2.18,2.18,0,0,0-1.37.56A2.42,2.42,0,0,0,4.7,6.12a1.56,1.56,0,0,0,.19,1.3,1.81,1.81,0,0,0,1.47.72,2.32,2.32,0,0,0,1.69-.38A1.85,1.85,0,0,0,8.8,6.55a1.81,1.81,0,0,0-.32-1.37,2.18,2.18,0,0,0-1.43-.81A.44.44,0,0,1,6.82,4.27ZM9.25,1.45a1.36,1.36,0,0,1,0-.17H9Zm1.16.12q0,.39,0,1.65c0,.42,0,.75,0,1a.63.63,0,0,0,0,.16h.88l1.26-.12c0-1.09,0-2.08.08-3H10.38A.56.56,0,0,1,10.41,1.57Z"/></g></g></svg>