<svg xmlns="http://www.w3.org/2000/svg" viewBox="0 0 17.37 15.84"><title>twitter</title><g id="Layer_2" data-name="Layer 2"><g id="_Layer_" data-name="&lt;Layer&gt;"><path d="M.67,11.69a4,4,0,0,0,2.14,0,3.49,3.49,0,0,0,1.77-1.09c-.38-.32-.69-.58-.92-.8A4.28,4.28,0,0,1,3,9.06,1,1,0,0,1,2.79,8V8a5.66,5.66,0,0,1-.61-.53A4,4,0,0,1,1.77,7a1.7,1.7,0,0,1-.29-.57,1,1,0,0,1,.31-1,1.05,1.05,0,0,1,.55-.17L2,4.94a4.18,4.18,0,0,1-.74-.8A1.14,1.14,0,0,1,1,3.57a.78.78,0,0,1,.3-.68.73.73,0,0,1,.79-.09.34.34,0,0,1,.12,0l.07,0h0a16.62,16.62,0,0,1,3,.73A21.45,21.45,0,0,1,8.1,4.94q0-.18,0-.3a3.88,3.88,0,0,1,.34-.83A13.45,13.45,0,0,1,9.85,1.73a11.85,11.85,0,0,1,1-1.15,2.37,2.37,0,0,1,.45-.39A.76.76,0,0,1,12,.05a.71.71,0,0,1,.4.51.76.76,0,0,1,0,.33l0,0c.48-.3.81-.49,1-.58a3,3,0,0,1,.42-.2,1.65,1.65,0,0,1,.3,0,.55.55,0,0,1,.48.39.58.58,0,0,1,0,.41.7.7,0,0,1-.1.16,1.2,1.2,0,0,1-.17.23l-.47.49L13.6,2l.14.1a8.36,8.36,0,0,1,1.44,1.49.58.58,0,0,1,.05.14l.06,0a.21.21,0,0,0,.08-.06l.68-.33a1.49,1.49,0,0,1,.64-.19.64.64,0,0,1,.49.21.57.57,0,0,1,.14.47,1.61,1.61,0,0,1-.18.5,4.09,4.09,0,0,1-.29.47q-.53.8-.6.93a1.1,1.1,0,0,0-.18.33l.12.12a3.18,3.18,0,0,0,.41.35l.38.31.16.12.08.08.08.07a.65.65,0,0,1,.05.45.87.87,0,0,1-.58.57,2.9,2.9,0,0,1-.62.17l-.57,0-.17,0a23.82,23.82,0,0,1-1.31,2.45,15.79,15.79,0,0,1-1.6,2.1,9.09,9.09,0,0,1-1.94,1.68,7.66,7.66,0,0,1-2.4,1,9.11,9.11,0,0,1-2.94.23,8.2,8.2,0,0,1-3-.8A3.53,3.53,0,0,1,.12,12.5a.44.44,0,0,1-.1-.45.55.55,0,0,1,.26-.32A.49.49,0,0,1,.67,11.69Zm15-7-.33.14a.51.51,0,0,1-.4,0,.51.51,0,0,1-.28-.28.47.47,0,0,1,0-.16.44.44,0,0,1-.25-.17,6.87,6.87,0,0,0-1.24-1.31l0,0-.08,0-.16-.08a.85.85,0,0,1-.46-.63h0L12,2.35a2.86,2.86,0,0,1-.43.19,1,1,0,0,1-.27,0,.6.6,0,0,1-.47-.19.21.21,0,0,1-.06-.08l-.06.06A13.23,13.23,0,0,0,9.4,4.24a2.6,2.6,0,0,0-.23.62,1,1,0,0,0,0,.25c0,.25,0,.38,0,.41a.48.48,0,0,1,.08.6.58.58,0,0,1-.32.26.61.61,0,0,1-.4,0,32.58,32.58,0,0,0-3.14-1.6A13.94,13.94,0,0,0,2.46,4l.21.2.76.64a3.17,3.17,0,0,1,.31.29l.14.22a.53.53,0,0,1,0,.46.81.81,0,0,1-.79.57,2.73,2.73,0,0,1-.57,0l.08.09a2,2,0,0,0,.29.32,6,6,0,0,0,.64.54l.18.06A.73.73,0,0,1,4.25,8a.59.59,0,0,1-.36.58,5.46,5.46,0,0,0,.49.51c.14.13.55.47,1.23,1a.49.49,0,0,1,.19.35.57.57,0,0,1-.12.39l-.07.08a.58.58,0,0,1-.1.21,4.51,4.51,0,0,1-1.86,1.42,4.73,4.73,0,0,1-2.3.33,2.73,2.73,0,0,0,1.32,1.19,6.84,6.84,0,0,0,2.63.7,8.36,8.36,0,0,0,2.58-.2A6.81,6.81,0,0,0,10,13.69a8.48,8.48,0,0,0,1.76-1.52,13.55,13.55,0,0,0,1.47-2,23.83,23.83,0,0,0,1.27-2.4.5.5,0,0,1,.3-.27.48.48,0,0,1,.41-.23h.31l.31,0a3.68,3.68,0,0,1-.39-.33,1.76,1.76,0,0,1-.39-.55.94.94,0,0,1,0-.68,3.3,3.3,0,0,1,.25-.5C15.4,5.08,15.49,4.92,15.62,4.72Zm.51-.25-.06.06S16.12,4.51,16.13,4.47Z"/></g></g></svg>